<svg width="22" height="25" viewBox="0 0 22 25" fill="none" xmlns="http://www.w3.org/2000/svg">
<g clip-path="url(#clip0)">
<path d="M20.0734 17.8311V20.8311C20.0744 21.1096 20.0224 21.3853 19.9206 21.6405C19.8188 21.8956 19.6695 22.1247 19.4822 22.313C19.295 22.5013 19.0739 22.6446 18.8332 22.7338C18.5925 22.823 18.3375 22.8562 18.0844 22.8311C15.2768 22.4967 12.58 21.4453 10.2105 19.7611C8.006 18.2258 6.13699 16.1773 4.73617 13.7611C3.19421 11.1523 2.23462 8.1821 1.93514 5.09111C1.91234 4.81457 1.94232 4.53587 2.02319 4.27273C2.10405 4.0096 2.23401 3.7678 2.40481 3.56273C2.5756 3.35766 2.78348 3.19382 3.01522 3.08163C3.24695 2.96944 3.49746 2.91137 3.75079 2.91111H6.48795C6.93074 2.90633 7.36 3.07819 7.69573 3.39464C8.03146 3.71109 8.25075 4.15055 8.31272 4.63111C8.42825 5.59117 8.64251 6.53383 8.95139 7.44111C9.07415 7.79903 9.10072 8.18802 9.02795 8.56199C8.95518 8.93595 8.78613 9.27922 8.54082 9.55111L7.38209 10.8211C8.68092 13.3247 10.5722 15.3976 12.8564 16.8211L14.0151 15.5511C14.2632 15.2822 14.5764 15.097 14.9176 15.0172C15.2588 14.9374 15.6137 14.9666 15.9403 15.1011C16.7681 15.4397 17.6281 15.6745 18.5041 15.8011C18.9473 15.8696 19.3521 16.1143 19.6414 16.4886C19.9307 16.8629 20.0845 17.3407 20.0734 17.8311Z" stroke="white" stroke-width="2" stroke-linecap="round" stroke-linejoin="round"/>
</g>
<defs>
<clipPath id="clip0">
<rect width="21.8973" height="24" fill="white" transform="translate(0 0.911133)"/>
</clipPath>
</defs>
</svg>
