<svg width="24" height="25" viewBox="0 0 24 25" fill="none" xmlns="http://www.w3.org/2000/svg">
<g clip-path="url(#clip0)">
<path d="M23.9773 7.9672C23.9211 6.69199 23.7149 5.81529 23.4195 5.05562C23.1147 4.24925 22.6459 3.52731 22.0316 2.92715C21.4315 2.31766 20.7048 1.84405 19.9077 1.54407C19.1437 1.24866 18.2715 1.04245 16.9963 0.986221C15.7116 0.925235 15.3037 0.911133 12.0453 0.911133C8.78685 0.911133 8.379 0.925235 7.09903 0.981459C5.82381 1.03768 4.94712 1.24408 4.18763 1.53931C3.38108 1.84405 2.65914 2.3129 2.05898 2.92715C1.44949 3.52731 0.976072 4.25401 0.675904 5.05104C0.380498 5.81529 0.174281 6.68722 0.118057 7.96244C0.0570706 9.24717 0.0429688 9.65503 0.0429688 12.9135C0.0429688 16.1719 0.0570706 16.5798 0.113295 17.8598C0.169519 19.135 0.375919 20.0117 0.671326 20.7713C0.976072 21.5777 1.44949 22.2996 2.05898 22.8998C2.65914 23.5093 3.38584 23.9829 4.18287 24.2829C4.94712 24.5783 5.81905 24.7845 7.09445 24.8407C8.37424 24.8971 8.78227 24.9111 12.0407 24.9111C15.2992 24.9111 15.707 24.8971 16.987 24.8407C18.2622 24.7845 19.1389 24.5783 19.8984 24.2829C21.5113 23.6593 22.7865 22.3841 23.4101 20.7713C23.7053 20.0071 23.9117 19.135 23.968 17.8598C24.0242 16.5798 24.0383 16.1719 24.0383 12.9135C24.0383 9.65503 24.0335 9.24717 23.9773 7.9672ZM21.8161 17.766C21.7644 18.9381 21.5675 19.571 21.4034 19.993C21.0002 21.0385 20.1703 21.8684 19.1248 22.2716C18.7028 22.4357 18.0653 22.6326 16.8978 22.6841C15.6319 22.7405 15.2523 22.7544 12.0501 22.7544C8.84784 22.7544 8.46343 22.7405 7.20213 22.6841C6.03003 22.6326 5.3971 22.4357 4.97514 22.2716C4.45484 22.0793 3.98123 21.7746 3.59682 21.3761C3.19831 20.9869 2.89356 20.5181 2.70126 19.9977C2.53717 19.5758 2.34029 18.9381 2.28883 17.7707C2.23242 16.5049 2.2185 16.125 2.2185 12.9228C2.2185 9.72059 2.23242 9.33618 2.28883 8.07507C2.34029 6.90296 2.53717 6.27003 2.70126 5.84807C2.89356 5.32758 3.19831 4.85416 3.60158 4.46957C3.99057 4.07105 4.45941 3.7663 4.9799 3.57419C5.40186 3.41009 6.03955 3.21322 7.2069 3.16157C8.47277 3.10535 8.8526 3.09125 12.0546 3.09125C15.2616 3.09125 15.6413 3.10535 16.9026 3.16157C18.0747 3.21322 18.7076 3.41009 19.1296 3.57419C19.6499 3.7663 20.1235 4.07105 20.5079 4.46957C20.9064 4.85874 21.2111 5.32758 21.4034 5.84807C21.5675 6.27003 21.7644 6.90754 21.8161 8.07507C21.8723 9.34094 21.8864 9.72059 21.8864 12.9228C21.8864 16.125 21.8723 16.5001 21.8161 17.766Z" fill="white"/>
<path d="M12.0442 6.74805C8.64049 6.74805 5.87891 9.50945 5.87891 12.9133C5.87891 16.3172 8.64049 19.0786 12.0442 19.0786C15.448 19.0786 18.2094 16.3172 18.2094 12.9133C18.2094 9.50945 15.448 6.74805 12.0442 6.74805ZM12.0442 16.9126C9.83604 16.9126 8.04492 15.1216 8.04492 12.9133C8.04492 10.705 9.83604 8.91406 12.0442 8.91406C14.2525 8.91406 16.0434 10.705 16.0434 12.9133C16.0434 15.1216 14.2525 16.9126 12.0442 16.9126Z" fill="white"/>
<path d="M19.8925 6.5045C19.8925 7.29933 19.248 7.94381 18.453 7.94381C17.6581 7.94381 17.0137 7.29933 17.0137 6.5045C17.0137 5.70948 17.6581 5.06519 18.453 5.06519C19.248 5.06519 19.8925 5.70948 19.8925 6.5045Z" fill="white"/>
</g>
<defs>
<clipPath id="clip0">
<rect width="24" height="24" fill="white" transform="translate(0 0.911133)"/>
</clipPath>
</defs>
</svg>
