<svg width="24" height="25" viewBox="0 0 24 25" fill="none" xmlns="http://www.w3.org/2000/svg">
<path d="M0.473603 20.506C2.6956 21.916 5.2816 22.661 7.9516 22.661C11.8616 22.661 15.4446 21.159 18.0416 18.432C20.5266 15.822 21.8936 12.315 21.8256 8.75602C22.7676 7.95002 23.8756 6.41102 23.8756 4.91102C23.8756 4.33602 23.2516 3.97102 22.7456 4.26402C21.8606 4.78402 21.0536 4.92002 20.2236 4.68702C18.5286 3.03502 16.0056 2.68702 13.8796 3.83302C12.0216 4.83302 10.9886 6.66302 11.0816 8.66302C7.9426 8.28002 5.0426 6.70602 3.0206 4.26002C2.6886 3.86102 2.0586 3.90802 1.7946 4.36002C0.820603 6.02802 0.830603 7.96102 1.6776 9.52202C1.2746 9.59302 1.0256 9.93202 1.0256 10.299C1.0256 11.868 1.7316 13.31 2.8686 14.294C2.6566 14.498 2.5866 14.801 2.6766 15.071C3.1766 16.573 4.3086 17.747 5.7236 18.335C4.1846 19.07 2.4826 19.315 0.967603 19.129C0.183603 19.023 -0.203397 20.077 0.473603 20.506ZM8.1566 18.592C8.7176 18.161 8.4196 17.263 7.7156 17.248C6.4756 17.222 5.3466 16.611 4.6436 15.65C4.9826 15.628 5.3336 15.576 5.6676 15.486C6.4286 15.28 6.3926 14.182 5.6196 14.027C4.2166 13.745 3.1156 12.723 2.7026 11.407C3.0796 11.5 3.4636 11.552 3.8466 11.559C4.6056 11.563 4.8926 10.59 4.2736 10.183C2.8786 9.26402 2.2836 7.64102 2.6776 6.11502C5.1136 8.58302 8.4186 10.07 11.9146 10.238C12.4156 10.269 12.7916 9.79802 12.6816 9.32102C12.2066 7.26202 13.3566 5.81902 14.5916 5.15402C15.8136 4.49402 17.7756 4.28802 19.2796 5.86602C19.7266 6.33702 21.2346 6.35502 22.0016 6.17602C21.6576 6.82402 21.1286 7.43902 20.6336 7.78502C20.4226 7.93302 20.3016 8.17902 20.3146 8.43602C20.4756 11.721 19.2516 14.987 16.9566 17.396C14.6446 19.823 11.4476 21.16 7.9526 21.16C6.5626 21.16 5.1996 20.934 3.9116 20.498C5.4516 20.2 6.9146 19.548 8.1566 18.592Z" fill="white"/>
</svg>
